<?xml version="1.0" encoding="utf-8"?>
<svg version="1.1" xmlns:xlink="http://www.w3.org/1999/xlink" width="18px" height="18px" viewBox="691 244.5  18 18" xmlns="http://www.w3.org/2000/svg">
  <path d="M 692.5 246.5  A 0.5 0.5 0 0 1 693 246 L 707 246  A 0.5 0.5 0 0 1 707.5 246.5 L 707.5 260.5  A 0.5 0.5 0 0 1 707 261 L 693 261  A 0.5 0.5 0 0 1 692.5 260.5 L 692.5 246.5  Z " fill-rule="nonzero" fill="#ffffff" stroke="none" fill-opacity="0" />
  <path d="M 692 246.5  A 1 1 0 0 1 693 245.5 L 707 245.5  A 1 1 0 0 1 708 246.5 L 708 260.5  A 1 1 0 0 1 707 261.5 L 693 261.5  A 1 1 0 0 1 692 260.5 L 692 246.5  Z " stroke-width="2" stroke="#797979" fill="none" />
</svg>