<?xml version="1.0" encoding="utf-8"?>
<svg version="1.1" xmlns:xlink="http://www.w3.org/1999/xlink" width="18px" height="18px" viewBox="576 244.5  18 18" xmlns="http://www.w3.org/2000/svg">
  <path d="M 577.5 246.5  A 0.5 0.5 0 0 1 578 246 L 592 246  A 0.5 0.5 0 0 1 592.5 246.5 L 592.5 260.5  A 0.5 0.5 0 0 1 592 261 L 578 261  A 0.5 0.5 0 0 1 577.5 260.5 L 577.5 246.5  Z " fill-rule="nonzero" fill="#ffffff" stroke="none" fill-opacity="0" />
  <path d="M 577 246.5  A 1 1 0 0 1 578 245.5 L 592 245.5  A 1 1 0 0 1 593 246.5 L 593 260.5  A 1 1 0 0 1 592 261.5 L 578 261.5  A 1 1 0 0 1 577 260.5 L 577 246.5  Z " stroke-width="2" stroke="#797979" fill="none" />
</svg>