<?xml version="1.0" encoding="utf-8"?>
<svg version="1.1" xmlns:xlink="http://www.w3.org/1999/xlink" width="155px" height="67px" xmlns="http://www.w3.org/2000/svg">
  <g transform="matrix(1 0 0 1 -528 -171 )">
    <path d="M 553.5 218.55900621118013  C 553.5 218.55900621118013  553.5 216.63502381006373  553.5 216.63502381006373  C 553.5 216.63502381006373  529.3494914686135 208.90686108002004  529.3494914686135 208.90686108002004  C 529.3494914686135 208.90686108002004  553.5 197.31461698495445  553.5 197.31461698495445  C 553.5 197.31461698495445  553.5 190  553.5 190  C 553.5 179.7827321281303  561.7827321281303 171.5  572 171.5  C 572 171.5  663.9999999999999 171.5  663.9999999999999 171.5  C 674.2172678718696 171.5  682.4999999999999 179.78273212813033  682.4999999999999 190  C 682.4999999999999 190  682.4999999999999 218.55900621118013  682.4999999999999 218.55900621118013  C 682.4999999999999 228.7762740830498  674.2172678718696 237.05900621118013  663.9999999999999 237.05900621118013  C 663.9999999999999 237.05900621118013  572 237.05900621118013  572 237.05900621118013  C 561.7827321281303 237.05900621118013  553.5 228.7762740830498  553.5 218.55900621118013  Z " fill-rule="nonzero" fill="#ffffff" stroke="none" />
    <path d="M 553 218.55900621118013  C 553 218.55900621118013  553 217  553 217  C 553 217  528 209  528 209  C 528 209  553 197  553 197  C 553 197  553 190  553 190  C 553 179.50658975321494  561.5065897532149 171  572 171  C 572 171  663.9999999999999 171  663.9999999999999 171  C 674.493410246785 171  682.9999999999999 179.50658975321494  682.9999999999999 190  C 682.9999999999999 190  682.9999999999999 218.55900621118013  682.9999999999999 218.55900621118013  C 682.9999999999999 229.0524164579652  674.493410246785 237.55900621118013  663.9999999999999 237.55900621118013  C 663.9999999999999 237.55900621118013  572 237.55900621118013  572 237.55900621118013  C 561.5065897532149 237.55900621118013  553 229.0524164579652  553 218.55900621118013  Z M 554 218.55900621118013  C 554 228.5001317081344  562.0588745030457 236.55900621118013  572 236.55900621118013  C 572 236.55900621118013  663.9999999999999 236.55900621118013  663.9999999999999 236.55900621118013  C 673.9411254969542 236.55900621118013  681.9999999999999 228.5001317081344  681.9999999999999 218.55900621118013  C 681.9999999999999 218.55900621118013  681.9999999999999 190  681.9999999999999 190  C 681.9999999999999 180.05887450304573  673.9411254969542 172  663.9999999999999 172  C 663.9999999999999 172  572 172  572 172  C 562.0588745030457 172  554 180.05887450304573  554 190  C 554 190  554 197.62923396990897  554 197.62923396990897  C 554 197.62923396990897  530.6989829372269 208.81372216004007  530.6989829372269 208.81372216004007  C 530.6989829372269 208.81372216004007  554 216.27004762012746  554 216.27004762012746  C 554 216.27004762012746  554 218.55900621118013  554 218.55900621118013  Z " fill-rule="nonzero" fill="#d7d7d7" stroke="none" />
  </g>
</svg>