<?xml version="1.0" encoding="utf-8"?>
<svg version="1.1" xmlns:xlink="http://www.w3.org/1999/xlink" width="25px" height="27px" xmlns="http://www.w3.org/2000/svg">
  <g transform="matrix(1 0 0 1 -40 -422 )">
    <path d="M 8.931107954545455 22.341796875  C 9.037642045454545 22.236328125  9.090909090909092 22.1015625  9 21.9375  L 9 9.562499999999998  C 9.090909090909092 9.3984375  9.037642045454545 9.263671875000002  8.931107954545455 9.158203125000002  C 8.824573863636363 9.052734375000002  8.68844696969697 9.000000000000002  8.522727272727272 9.000000000000002  L 7.386363636363637 9.000000000000002  C 7.22064393939394 9.000000000000002  7.084517045454547 9.052734375000002  6.977982954545454 9.158203125000002  C 6.871448863636363 9.263671875000002  6.8181818181818175 9.3984375  7 9.562499999999998  L 7 21.9375  C 6.8181818181818175 22.1015625  6.871448863636363 22.236328125  6.977982954545454 22.341796875  C 7.084517045454547 22.447265625  7.22064393939394 22.5  7.386363636363637 22.5  L 8.522727272727272 22.5  C 8.68844696969697 22.5  8.824573863636363 22.447265625  8.931107954545455 22.341796875  Z M 13.4765625 22.341796875  C 13.583096590909092 22.236328125  13.636363636363635 22.1015625  13.636363636363635 21.9375  L 13.636363636363635 9.562499999999998  C 13.636363636363635 9.3984375  13.583096590909092 9.263671875000002  13.4765625 9.158203125000002  C 13.370028409090908 9.052734375000002  13.233901515151517 9.000000000000002  13.068181818181818 9.000000000000002  L 11.931818181818182 9.000000000000002  C 11.766098484848486 9.000000000000002  11.629971590909092 9.052734375000002  11.5234375 9.158203125000002  C 11.416903409090908 9.263671875000002  11.363636363636363 9.3984375  11.363636363636363 9.562499999999998  L 11.363636363636363 21.9375  C 11.363636363636363 22.1015625  11.416903409090908 22.236328125  11.5234375 22.341796875  C 11.629971590909092 22.447265625  11.766098484848486 22.5  11.931818181818182 22.5  L 13.068181818181818 22.5  C 13.233901515151517 22.5  13.370028409090908 22.447265625  13.4765625 22.341796875  Z M 18.022017045454543 22.341796875  C 18.128551136363637 22.236328125  18.181818181818183 22.1015625  18 21.9375  L 18 9.562499999999998  C 18.181818181818183 9.3984375  18.128551136363637 9.263671875000002  18.022017045454543 9.158203125000002  C 17.915482954545457 9.052734375000002  17.779356060606062 9.000000000000002  17.613636363636363 9.000000000000002  L 16.477272727272727 9.000000000000002  C 16.31155303030303 9.000000000000002  16.175426136363637 9.052734375000002  16.068892045454543 9.158203125000002  C 15.962357954545455 9.263671875000002  15.909090909090908 9.3984375  16 9.562499999999998  L 16 21.9375  C 15.909090909090908 22.1015625  15.962357954545455 22.236328125  16.068892045454543 22.341796875  C 16.175426136363637 22.447265625  16.31155303030303 22.5  16.477272727272727 22.5  L 17.613636363636363 22.5  C 17.779356060606062 22.5  17.915482954545457 22.447265625  18.022017045454543 22.341796875  Z M 9.392755681818182 2.443359374999999  L 8.522727272727272 4.499999999999999  L 16.477272727272727 4.499999999999999  L 15.625 2.443359374999999  C 15.542140151515154 2.337890624999999  15.441524621212121 2.2734374999999987  15.323153409090908 2.250000000000001  L 9.694602272727272 2.250000000000001  C 9.57623106060606 2.2734374999999987  9.475615530303031 2.337890624999999  9.392755681818182 2.443359374999999  Z M 24.840198863636363 4.658203124999999  C 24.946732954545457 4.763671874999999  25 4.898437499999998  25 5.0625  L 25 6.187499999999999  C 25 6.351562499999997  24.946732954545457 6.486328125  24.840198863636363 6.591796875  C 24.733664772727273 6.697265625  24.597537878787882 6.75  24.431818181818183 6.75  L 22.727272727272727 6.75  L 22.727272727272727 23.4140625  C 22.727272727272727 24.386718749999996  22.449100378787882 25.2275390625  21.892755681818183 25.9365234375  C 21.336410984848484 26.6455078125  20.667613636363637 27  19.886363636363637 27  L 5.113636363636364 27  C 4.332386363636364 27  3.663589015151516 26.6572265625  3.107244318181818 25.9716796875  C 2.5508996212121215 25.2861328125  2.272727272727273 24.45703125  2.272727272727273 23.484375  L 2.272727272727273 6.75  L 0.5681818181818182 6.75  C 0.4024621212121212 6.75  0.2663352272727273 6.697265625  0.15980113636363638 6.591796875  C 0.05326704545454545 6.486328125  0 6.351562499999997  0 6.187499999999999  L 0 5.0625  C 0 4.898437499999998  0.05326704545454545 4.763671874999999  0.15980113636363638 4.658203124999999  C 0.2663352272727273 4.552734374999999  0.4024621212121212 4.499999999999999  0.5681818181818182 4.499999999999999  L 6.0546875 4.499999999999999  L 7.2975852272727275 1.5644531250000009  C 7.475142045454547 1.1308593749999978  7.794744318181819 0.7617187499999977  8.256392045454545 0.457031250000001  C 8.718039772727273 0.15234374999999833  9.18560606060606 0  9.659090909090908 0  L 15.340909090909092 0  C 15.814393939393941 0  16.281960227272727 0.15234374999999833  16.743607954545457 0.457031250000001  C 17.205255681818183 0.7617187499999977  17.524857954545457 1.1308593749999978  17.702414772727273 1.5644531250000009  L 18.9453125 4.499999999999999  L 24.431818181818183 4.499999999999999  C 24.597537878787882 4.499999999999999  24.733664772727273 4.552734374999999  24.840198863636363 4.658203124999999  Z " fill-rule="nonzero" fill="#e80e0e" stroke="none" transform="matrix(1 0 0 1 40 422 )" />
  </g>
</svg>