<?xml version="1.0" encoding="utf-8"?>
<svg version="1.1" xmlns:xlink="http://www.w3.org/1999/xlink" width="26px" height="25px" xmlns="http://www.w3.org/2000/svg">
  <g transform="matrix(1 0 0 1 -492 -194 )">
    <path d="M 17.180989583333332 20.686848958333336  C 17.282552083333332 20.589192708333336  17.333333333333332 20.46440972222222  17.333333333333332 20.3125  L 17.333333333333332 17.708333333333332  C 17.333333333333332 17.55642361111111  17.282552083333332 17.431640625  17.180989583333332 17.333984375  C 17.079427083333332 17.236328125  16.94965277777778 17.1875  16.791666666666668 17.1875  L 15.166666666666668 17.1875  L 15.166666666666668 8.854166666666666  C 15.166666666666668 8.702256944444445  15.115885416666668 8.577473958333334  15.014322916666668 8.479817708333334  C 14.912760416666668 8.382161458333334  14.782986111111112 8.333333333333334  14.625 8.333333333333334  L 9.208333333333334 8.333333333333334  C 9.050347222222223 8.333333333333334  8.920572916666666 8.382161458333334  8.819010416666666 8.479817708333334  C 8.717447916666666 8.577473958333334  8.666666666666666 8.702256944444445  8.666666666666666 8.854166666666666  L 8.666666666666666 11.458333333333334  C 8.666666666666666 11.610243055555555  8.717447916666666 11.735026041666666  8.819010416666666 11.832682291666666  C 8.920572916666666 11.930338541666666  9.050347222222223 11.979166666666666  9.208333333333334 11.979166666666666  L 10.833333333333334 11.979166666666666  L 10.833333333333334 17.1875  L 9.208333333333334 17.1875  C 9.050347222222223 17.1875  8.920572916666666 17.236328125  8.819010416666666 17.333984375  C 8.717447916666666 17.431640625  8.666666666666666 17.55642361111111  8.666666666666666 17.708333333333332  L 8.666666666666666 20.3125  C 8.666666666666666 20.46440972222222  8.717447916666666 20.589192708333336  8.819010416666666 20.686848958333336  C 8.920572916666666 20.784505208333336  9.050347222222223 20.833333333333336  9.208333333333334 20.833333333333336  L 16.791666666666668 20.833333333333336  C 16.94965277777778 20.833333333333336  17.079427083333332 20.784505208333336  17.180989583333332 20.686848958333336  Z M 15.014322916666668 6.103515625  C 15.115885416666668 6.005859375  15.166666666666668 5.881076388888887  15.166666666666668 5.729166666666666  L 15.166666666666668 3.125  C 15.166666666666668 2.9730902777777763  15.115885416666668 2.8483072916666656  15.014322916666668 2.7506510416666656  C 14.912760416666668 2.6529947916666656  14.782986111111112 2.6041666666666656  14.625 2.6041666666666656  L 11.375 2.6041666666666656  C 11.21701388888889 2.6041666666666656  11.087239583333334 2.6529947916666656  10.985677083333334 2.7506510416666656  C 10.884114583333334 2.8483072916666656  10.833333333333334 2.9730902777777763  10.833333333333334 3.125  L 10.833333333333334 5.729166666666666  C 10.833333333333334 5.881076388888887  10.884114583333334 6.005859375  10.985677083333334 6.103515625  C 11.087239583333334 6.201171875  11.21701388888889 6.25  11.375 6.25  L 14.625 6.25  C 14.782986111111112 6.25  14.912760416666668 6.201171875  15.014322916666668 6.103515625  Z M 24.256510416666668 6.2255859375  C 25.418836805555554 8.140733506944443  26 10.232204861111107  26 12.5  C 26 14.76779513888889  25.418836805555554 16.859266493055554  24.256510416666668 18.7744140625  C 23.09418402777778 20.689561631944446  21.51714409722222 22.205946180555554  19.525390625 23.323567708333336  C 17.53363715277778 24.441189236111114  15.358506944444445 25  13 25  C 10.641493055555557 25  8.466362847222223 24.441189236111114  6.474609375 23.323567708333336  C 4.482855902777779 22.205946180555554  2.9058159722222223 20.689561631944446  1.7434895833333335 18.7744140625  C 0.5811631944444444 16.859266493055554  0 14.76779513888889  0 12.5  C 0 10.232204861111107  0.5811631944444444 8.140733506944443  1.7434895833333335 6.2255859375  C 2.9058159722222223 4.310438368055555  4.482855902777779 2.794053819444442  6.474609375 1.6764322916666656  C 8.466362847222223 0.5588107638888867  10.641493055555557 0  13 0  C 15.358506944444445 0  17.53363715277778 0.5588107638888867  19.525390625 1.6764322916666656  C 21.51714409722222 2.794053819444442  23.09418402777778 4.310438368055555  24.256510416666668 6.2255859375  Z " fill-rule="nonzero" fill="#2970cd" stroke="none" transform="matrix(1 0 0 1 492 194 )" />
  </g>
</svg>