<?xml version="1.0" encoding="utf-8"?>
<svg version="1.1" xmlns:xlink="http://www.w3.org/1999/xlink" width="40px" height="39px" xmlns="http://www.w3.org/2000/svg">
  <g transform="matrix(1 0 0 1 -485 -715 )">
    <path d="M 30.3125 35.416875  C 30.616987179487182 35.108125  30.76923076923077 34.7425  30.76923076923077 34.32  C 30.76923076923077 33.8975  30.616987179487182 33.531875  30.3125 33.223124999999996  C 30.008012820512825 32.914375  29.647435897435905 32.76  29.23076923076923 32.76  C 28.814102564102562 32.76  28.453525641025642 32.914375  28.149038461538463 33.223124999999996  C 27.844551282051285 33.531875  27.692307692307693 33.8975  27.692307692307693 34.32  C 27.692307692307693 34.7425  27.844551282051285 35.108125  28.149038461538463 35.416875  C 28.453525641025642 35.725625  28.814102564102562 35.88  29.23076923076923 35.88  C 29.647435897435905 35.88  30.008012820512825 35.725625  30.3125 35.416875  Z M 36.46634615384615 35.416875  C 36.77083333333333 35.108125  36.92307692307693 34.7425  36.92307692307693 34.32  C 36.92307692307693 33.8975  36.77083333333333 33.531875  36.46634615384615 33.223124999999996  C 36.16185897435898 32.914375  35.80128205128205 32.76  35.38461538461539 32.76  C 34.967948717948715 32.76  34.607371794871796 32.914375  34.30288461538461 33.223124999999996  C 33.99839743589744 33.531875  33.84615384615385 33.8975  33.84615384615385 34.32  C 33.84615384615385 34.7425  33.99839743589744 35.108125  34.30288461538461 35.416875  C 34.607371794871796 35.725625  34.967948717948715 35.88  35.38461538461539 35.88  C 35.80128205128205 35.88  36.16185897435898 35.725625  36.46634615384615 35.416875  Z M 39.32692307692307 27.2025  C 39.77564102564103 27.65749999999999  40 28.209999999999997  40 28.86  L 40 36.66  C 40 37.31  39.77564102564103 37.8625  39.32692307692307 38.3175  C 38.87820512820513 38.7725  38.33333333333334 39  37.69230769230769 39  L 2.307692307692308 39  C 1.666666666666667 39  1.121794871794872 38.7725  0.673076923076923 38.3175  C 0.22435897435897434 37.8625  0 37.31  0 36.66  L 0 28.86  C 0 28.209999999999997  0.22435897435897434 27.65749999999999  0.673076923076923 27.2025  C 1.121794871794872 26.747500000000002  1.666666666666667 26.519999999999996  2.307692307692308 26  L 12.572115384615385 26  C 12.908653846153847 27.43  13.473557692307692 28.1775  14.266826923076923 28.762500000000003  C 15.060096153846153 29.347499999999997  15.945512820512821 29.64  16.923076923076923 29.64  L 23.076923076923073 29.64  C 24.054487179487182 29.64  24.939903846153847 29.347499999999997  25.733173076923073 28.762500000000003  C 26.526442307692307 28.1775  27.091346153846153 27.43  27.427884615384617 26  L 37.69230769230769 26  C 38.33333333333334 26.519999999999996  38.87820512820513 26.747500000000002  39.32692307692307 27.2025  Z M 31.850961538461537 11.383125  C 32.347756410256416 11.870624999999999  32.459935897435905 12.431249999999999  32.1875 13.064999999999998  C 31.915064102564106 13.714999999999996  31.442307692307693 14.04  30.76923076923077 14.04  L 24 14.04  L 24 24.96  C 24.615384615384617 25.382499999999997  24.463141025641026 25.748124999999998  24.158653846153847 26.056875  C 23.85416666666667 26.365624999999998  23.493589743589745 26.519999999999996  23.076923076923073 26.519999999999996  L 16.923076923076923 26.519999999999996  C 16.50641025641026 26.519999999999996  16.145833333333336 26.365624999999998  15.841346153846153 26.056875  C 15.536858974358976 25.748124999999998  15.384615384615385 25.382499999999997  16 24.96  L 16 14.04  L 9.230769230769232 14.04  C 8.557692307692307 14.04  8.084935897435898 13.714999999999996  7.8125 13.064999999999998  C 7.540064102564104 12.431249999999999  7.65224358974359 11.870624999999999  8.149038461538462 11.383125  L 18.91826923076923 0.4631249999999988  C 19.20673076923077 0.15437499999999815  19.567307692307693 0  20 0  C 20.432692307692307 0  20.79326923076923 0.15437499999999815  21.08173076923077 0.4631249999999988  L 31.850961538461537 11.383125  Z " fill-rule="nonzero" fill="#000000" stroke="none" transform="matrix(1 0 0 1 485 715 )" />
  </g>
</svg>